# xmcd CD database file
#
# Track frame offsets:
#	150
#	13906
#	30413
#	42918
#	60191
#	74103
#	92693
#	109078
#	122040
#	140464
#	153162
#	171467
#	189057
#	202842
#	213818
#
# Disc length: 2999 seconds
#
# Revision: 0
# Processed by: cddbd v1.4PL0 Copyright (c) Steve Scherf et al.
# Submitted via: CDex 1.50Beta7
#
DISCID=c40bb50f
DTITLE=Jazz 4 - Jazz en el subte
DYEAR=2001
DGENRE=Jazz
TTITLE0=I can´t give you anything but love, baby
TTITLE1=Exactly like you
TTITLE2=Autumn leaves
TTITLE3=Things ain´t what they used to be
TTITLE4=Whsipering
TTITLE5=Stompin at the Savoy
TTITLE6=Pequeña flor
TTITLE7=When you´re smiling
TTITLE8=St. Louis Blues
TTITLE9=C´est si bon
TTITLE10=You´ve got me running
TTITLE11=Relaxin
TTITLE12=All of me
TTITLE13=Sweet Georgia Brown
TTITLE14=When the saints go marching in
EXTD=YEAR: 2001
EXTT0=
EXTT1=
EXTT2=
EXTT3=
EXTT4=
EXTT5=
EXTT6=
EXTT7=
EXTT8=
EXTT9=
EXTT10=
EXTT11=
EXTT12=
EXTT13=
EXTT14=
PLAYORDER=
